<svg id="Layer_1" data-name="Layer 1" xmlns="http://www.w3.org/2000/svg" viewBox="0 0 309.68 275.78"><defs><style>.cls-1{fill:#333;}</style></defs><path class="cls-1" d="M154.34,1.65c.93.24,1.73.4,2.48.66l67,24q26.13,9.33,52.28,18.6c5.45,1.93,5.57,1.88,4.93,7.47-2.11,18.37-4.33,36.73-6.45,55.1-1.88,16.38-3.68,32.77-5.54,49.14-2.05,18.08-4.19,36.15-6.13,54.24-.35,3.32-1.94,5-4.75,6.57q-50.62,27.84-101.1,55.95a4.92,4.92,0,0,1-5.5-.08q-44.7-24.83-89.49-49.5c-4.32-2.38-8.62-4.79-13-7.11A5.4,5.4,0,0,1,46,212c-2-18.38-4.17-36.75-6.26-55.13-2.37-20.77-4.69-41.55-7.08-62.32C31,80,29.31,65.56,27.48,51.1c-.36-2.81.1-4.45,3-5.47,14.91-5.2,29.75-10.57,44.61-15.87L150.72,2.82C152,2.39,153.2,2,154.34,1.65Zm.44,32.07A3.39,3.39,0,0,0,153,35.88q-7.94,17.76-15.85,35.54-16.59,37.2-33.17,74.39C95,166,86,186.23,76.93,206.4c-1.22,2.71-.24,3,2.14,3,7.44-.07,14.89-.12,22.33,0,2.47,0,3.55-1,4.39-3.18,4.35-11.15,8.86-22.23,13.21-33.38.93-2.39,2.23-3.41,4.89-3.4q30.33.15,60.67,0c2.63,0,4,.91,4.91,3.33,4.43,11.33,9.06,22.58,13.53,33.9a3.7,3.7,0,0,0,4.05,2.72c6.23-.11,12.47,0,18.71,0,7.05,0,7.05,0,4.33-6.33-.12-.27-.23-.56-.35-.83q-17.52-39.42-35.05-78.84-14.58-32.79-29.18-65.59Z"/><path class="cls-1" d="M154.38,146c-6.54,0-13.08,0-19.62,0-3.7,0-4-.48-2.59-3.78Q142.58,117.34,153,92.43c.33-.79.32-2.06,1.47-2,.83,0,1,1.13,1.34,1.86q10.64,25.47,21.25,50.94c1,2.39-.12,2.82-2.14,2.81Z"/></svg>